<svg width="57" height="58" viewBox="0 0 57 58" fill="none" xmlns="http://www.w3.org/2000/svg">
<path d="M28.5 10C31.0196 10 33.4359 11.0009 35.2175 12.7825C36.9991 14.5641 38 16.9804 38 19.5C38 22.0196 36.9991 24.4359 35.2175 26.2175C33.4359 27.9991 31.0196 29 28.5 29C25.9804 29 23.5641 27.9991 21.7825 26.2175C20.0009 24.4359 19 22.0196 19 19.5C19 16.9804 20.0009 14.5641 21.7825 12.7825C23.5641 11.0009 25.9804 10 28.5 10ZM28.5 33.75C38.9975 33.75 47.5 38.0012 47.5 43.25V48H9.5V43.25C9.5 38.0012 18.0025 33.75 28.5 33.75Z" fill="white"/>
</svg>
